<svg width="55" height="55" viewBox="0 0 55 55" fill="none" xmlns="http://www.w3.org/2000/svg">
<path d="M53.69 41.9048C53.518 41.9048 53.3477 41.9386 53.1888 42.0044C53.0299 42.0702 52.8856 42.1667 52.764 42.2883C52.6424 42.4099 52.5459 42.5543 52.4801 42.7132C52.4143 42.872 52.3804 43.0423 52.3805 43.2143V52.3809H43.2138C42.8665 52.3809 42.5334 52.5189 42.2878 52.7645C42.0423 53.0101 41.9043 53.3432 41.9043 53.6905C41.9043 54.0378 42.0423 54.3709 42.2878 54.6164C42.5334 54.862 42.8665 55 43.2138 55H53.69C53.8619 55 54.0322 54.9661 54.1911 54.9003C54.35 54.8345 54.4944 54.7381 54.616 54.6165C54.7376 54.4949 54.834 54.3505 54.8998 54.1916C54.9656 54.0327 54.9995 53.8624 54.9995 53.6905V43.2143C54.9995 43.0423 54.9656 42.872 54.8998 42.7132C54.834 42.5543 54.7376 42.4099 54.616 42.2883C54.4944 42.1667 54.35 42.0702 54.1911 42.0044C54.0322 41.9386 53.8619 41.9048 53.69 41.9048Z" fill="#1C715C"/>
<path d="M11.7857 52.3809H2.61904V43.2143C2.61904 42.867 2.48107 42.5339 2.23549 42.2883C1.98991 42.0428 1.65683 41.9048 1.30952 41.9048C0.962213 41.9048 0.629132 42.0428 0.383549 42.2883C0.137967 42.5339 4.19151e-09 42.867 4.19151e-09 43.2143V53.6905C-1.37553e-05 53.8624 0.0338487 54.0327 0.0996533 54.1916C0.165458 54.3505 0.261916 54.4949 0.383519 54.6165C0.505122 54.7381 0.649487 54.8345 0.808372 54.9003C0.967256 54.9661 1.13755 55 1.30952 55H11.7857C12.133 55 12.4661 54.862 12.7116 54.6164C12.9572 54.3709 13.0952 54.0378 13.0952 53.6905C13.0952 53.3432 12.9572 53.0101 12.7116 52.7645C12.4661 52.5189 12.133 52.3809 11.7857 52.3809Z" fill="#1C715C"/>
<path d="M53.69 4.19151e-09H43.2138C42.8665 4.19151e-09 42.5334 0.137967 42.2878 0.383549C42.0423 0.629132 41.9043 0.962213 41.9043 1.30952C41.9043 1.65683 42.0423 1.98991 42.2878 2.23549C42.5334 2.48107 42.8665 2.61904 43.2138 2.61904H52.3805V11.7857C52.3805 12.133 52.5184 12.4661 52.764 12.7116C53.0096 12.9572 53.3427 13.0952 53.69 13.0952C54.0373 13.0952 54.3704 12.9572 54.6159 12.7116C54.8615 12.4661 54.9995 12.133 54.9995 11.7857V1.30952C54.9995 1.13755 54.9656 0.967256 54.8998 0.808372C54.834 0.649487 54.7376 0.505122 54.616 0.383519C54.4944 0.261916 54.35 0.165458 54.1911 0.0996533C54.0322 0.0338487 53.8619 -1.37553e-05 53.69 4.19151e-09Z" fill="#1C715C"/>
<path d="M11.7857 4.19151e-09H1.30952C1.13755 -1.37553e-05 0.967256 0.0338487 0.808372 0.0996533C0.649487 0.165458 0.505122 0.261916 0.383519 0.383519C0.261916 0.505122 0.165458 0.649487 0.0996533 0.808372C0.0338487 0.967256 -1.37553e-05 1.13755 4.19151e-09 1.30952V11.7857C4.19151e-09 12.133 0.137967 12.4661 0.383549 12.7116C0.629132 12.9572 0.962213 13.0952 1.30952 13.0952C1.65683 13.0952 1.98991 12.9572 2.23549 12.7116C2.48107 12.4661 2.61904 12.133 2.61904 11.7857V2.61904H11.7857C12.133 2.61904 12.4661 2.48107 12.7116 2.23549C12.9572 1.98991 13.0952 1.65683 13.0952 1.30952C13.0952 0.962213 12.9572 0.629132 12.7116 0.383549C12.4661 0.137967 12.133 4.19151e-09 11.7857 4.19151e-09Z" fill="#1C715C"/>
<path d="M28.8127 24.4624C28.8127 24.115 28.6748 23.782 28.4292 23.5364C28.1836 23.2908 27.8505 23.1528 27.5032 23.1528C27.1559 23.1528 26.8228 23.2908 26.5772 23.5364C26.3317 23.782 26.1937 24.115 26.1937 24.4624V28.8544C26.1983 30.5778 25.8611 32.285 25.2015 33.8773C24.5419 35.4695 23.5731 36.9151 22.3511 38.1304L19.9663 40.5162C19.8446 40.6378 19.748 40.7821 19.682 40.941C19.6161 41.1 19.5821 41.2703 19.582 41.4423C19.582 41.6144 19.6158 41.7847 19.6816 41.9437C19.7474 42.1027 19.8439 42.2471 19.9655 42.3688C20.0872 42.4904 20.2316 42.5869 20.3906 42.6527C20.5495 42.7185 20.7199 42.7523 20.892 42.7523C21.064 42.7522 21.2343 42.7182 21.3932 42.6523C21.5521 42.5863 21.6965 42.4897 21.8181 42.368L24.2028 39.9822C25.6689 38.5244 26.8312 36.7902 27.6225 34.8801C28.4138 32.97 28.8184 30.9219 28.8127 28.8544V24.4624Z" fill="#1C715C"/>
<path d="M35.0947 24.4624C35.0947 24.115 34.9567 23.782 34.7111 23.5364C34.4655 23.2908 34.1325 23.1528 33.7852 23.1528C33.4378 23.1528 33.1048 23.2908 32.8592 23.5364C32.6136 23.782 32.4756 24.115 32.4756 24.4624V28.8544C32.4873 33.9173 30.5083 38.7819 26.9654 42.3987C26.8438 42.5214 26.7476 42.667 26.6825 42.8271C26.6173 42.9872 26.5846 43.1586 26.586 43.3314C26.5874 43.5042 26.623 43.675 26.6908 43.834C26.7586 43.993 26.8571 44.137 26.9808 44.2577C27.1045 44.3784 27.2508 44.4735 27.4114 44.5373C27.572 44.6012 27.7436 44.6327 27.9164 44.6299C28.0892 44.6271 28.2598 44.5902 28.4182 44.5212C28.5767 44.4522 28.7199 44.3525 28.8397 44.2279C32.8613 40.1228 35.1079 34.6011 35.0947 28.8544V24.4624Z" fill="#1C715C"/>
<path d="M19.9043 26.7622C19.9043 27.1096 20.0423 27.4426 20.2878 27.6882C20.5334 27.9338 20.8665 28.0718 21.2138 28.0718C21.5611 28.0718 21.8942 27.9338 22.1398 27.6882C22.3854 27.4426 22.5233 27.1096 22.5233 26.7622V24.4624C22.5248 23.1431 23.0496 21.8783 23.9825 20.9454C24.9154 20.0125 26.1802 19.4877 27.4995 19.4862C28.3055 19.4834 29.0999 19.6787 29.8127 20.0551C29.9649 20.1351 30.1314 20.1844 30.3027 20.2002C30.4739 20.2159 30.6466 20.1977 30.8109 20.1467C30.9751 20.0957 31.1277 20.0128 31.26 19.9028C31.3922 19.7928 31.5015 19.6579 31.5815 19.5057C31.6616 19.3534 31.7109 19.1869 31.7266 19.0157C31.7424 18.8444 31.7242 18.6717 31.6732 18.5074C31.6222 18.3432 31.5393 18.1906 31.4293 18.0584C31.3193 17.9261 31.1844 17.8169 31.0321 17.7368C29.8743 17.1294 28.5794 16.8311 27.2726 16.8707C25.9657 16.9102 24.6912 17.2863 23.5722 17.9626C22.4533 18.6389 21.5278 19.5925 20.8852 20.7311C20.2427 21.8698 19.9048 23.155 19.9043 24.4624V26.7622Z" fill="#1C715C"/>
<path d="M21.1414 33.7836C21.2328 33.637 21.2943 33.4738 21.3224 33.3033C21.3504 33.1329 21.3445 32.9585 21.3049 32.7904C21.2653 32.6222 21.1928 32.4635 21.0916 32.3235C20.9905 32.1835 20.8626 32.0648 20.7154 31.9744C20.5682 31.884 20.4045 31.8236 20.2339 31.7967C20.0632 31.7698 19.8889 31.777 19.7211 31.8177C19.5532 31.8584 19.395 31.932 19.2557 32.0341C19.1163 32.1362 18.9986 32.2649 18.9091 32.4127C18.6248 32.8751 18.2873 33.3026 17.9034 33.6864L15.6128 35.9771C15.491 36.0986 15.3944 36.243 15.3285 36.4019C15.2626 36.5608 15.2286 36.7311 15.2285 36.9032C15.2284 37.0752 15.2623 37.2456 15.3281 37.4045C15.3939 37.5635 15.4904 37.7079 15.612 37.8296C15.7337 37.9512 15.8781 38.0477 16.0371 38.1135C16.196 38.1793 16.3664 38.2132 16.5384 38.2131C16.7105 38.213 16.8808 38.179 17.0397 38.1131C17.1986 38.0472 17.343 37.9506 17.4645 37.8288L19.7552 35.5382C20.2842 35.0095 20.7494 34.4206 21.1414 33.7836Z" fill="#1C715C"/>
<path d="M40.0711 29.4385C39.8992 29.4385 39.7289 29.4723 39.57 29.5381C39.4111 29.6039 39.2667 29.7004 39.1451 29.822C39.0235 29.9436 38.9271 30.088 38.8613 30.2468C38.7955 30.4057 38.7616 30.576 38.7616 30.748C38.7612 32.3457 38.421 33.9251 37.7637 35.3813C37.1063 36.8375 36.1467 38.1373 34.9487 39.1944C34.6892 39.4245 34.5315 39.7481 34.5103 40.0943C34.489 40.4404 34.606 40.7809 34.8354 41.041C35.0649 41.301 35.3881 41.4595 35.7342 41.4815C36.0804 41.5036 36.4211 41.3875 36.6817 41.1587C38.1581 39.8556 39.3406 38.2535 40.1507 36.4586C40.9608 34.6638 41.3801 32.7172 41.3807 30.748C41.3807 30.576 41.3468 30.4057 41.281 30.2468C41.2152 30.088 41.1187 29.9436 40.9971 29.822C40.8755 29.7004 40.7312 29.6039 40.5723 29.5381C40.4134 29.4723 40.2431 29.4385 40.0711 29.4385Z" fill="#1C715C"/>
<path d="M27.5032 10.5815C26.2707 10.5805 25.0435 10.7435 23.854 11.0665C23.6876 11.1112 23.5317 11.1884 23.3952 11.2935C23.2588 11.3986 23.1444 11.5296 23.0586 11.679C22.9728 11.8284 22.9174 11.9932 22.8954 12.1641C22.8735 12.3349 22.8855 12.5085 22.9307 12.6747C22.9759 12.8409 23.0535 12.9966 23.159 13.1327C23.2645 13.2689 23.3958 13.383 23.5454 13.4683C23.695 13.5537 23.8601 13.6087 24.031 13.6301C24.2019 13.6516 24.3754 13.6391 24.5415 13.5934C26.2122 13.1404 27.9648 13.0783 29.6634 13.4118C31.3621 13.7453 32.9611 14.4655 34.3365 15.5165C35.712 16.5676 36.8269 17.9212 37.5949 19.4726C38.3629 21.024 38.7633 22.7314 38.7651 24.4625C38.7651 24.8098 38.9031 25.1428 39.1486 25.3884C39.3942 25.634 39.7273 25.772 40.0746 25.772C40.4219 25.772 40.755 25.634 41.0006 25.3884C41.2462 25.1428 41.3841 24.8098 41.3841 24.4625C41.3798 20.7823 39.916 17.2542 37.3137 14.6519C34.7115 12.0497 31.1833 10.5859 27.5032 10.5815Z" fill="#1C715C"/>
<path d="M16.2382 30.7482V24.4625C16.2401 22.9077 16.563 21.3701 17.1868 19.9459C17.8105 18.5217 18.7216 17.2417 19.8629 16.1859C19.9899 16.0694 20.0926 15.9291 20.1652 15.7728C20.2378 15.6166 20.2789 15.4476 20.2861 15.2754C20.2932 15.1033 20.2664 14.9314 20.207 14.7697C20.1477 14.6079 20.057 14.4595 19.9402 14.3328C19.8234 14.2062 19.6827 14.1039 19.5263 14.0317C19.3698 13.9595 19.2007 13.9188 19.0285 13.9121C18.8564 13.9054 18.6846 13.9327 18.523 13.9925C18.3614 14.0523 18.2132 14.1434 18.0869 14.2605C16.6803 15.5621 15.5575 17.14 14.7887 18.8954C14.0199 20.6509 13.6218 22.5461 13.6191 24.4625V30.7482C13.6191 31.0955 13.7571 31.4286 14.0027 31.6742C14.2483 31.9197 14.5814 32.0577 14.9287 32.0577C15.276 32.0577 15.609 31.9197 15.8546 31.6742C16.1002 31.4286 16.2382 31.0955 16.2382 30.7482Z" fill="#1C715C"/>
</svg>
